<svg viewBox="0 0 64 64" xmlns="http://www.w3.org/2000/svg" role="img" aria-label="MeteoGasilec">
  <defs>
    <linearGradient id="helmG" x1="0" y1="0" x2="0" y2="1">
      <stop offset="0%" stop-color="#f87171"/>
      <stop offset="100%" stop-color="#b91c1c"/>
    </linearGradient>
    <linearGradient id="flameG" x1="0" y1="0" x2="0" y2="1">
      <stop offset="0%" stop-color="#fde68a"/>
      <stop offset="100%" stop-color="#f59e0b"/>
    </linearGradient>
  </defs>
  <path d="M10 40c0-13 9.8-24 22-24s22 11 22 24H10Z" fill="url(#helmG)"/>
  <path d="M6 40h52a2.5 2.5 0 0 1 2.5 2.5A2.5 2.5 0 0 1 58 45H6a2.5 2.5 0 0 1-2.5-2.5A2.5 2.5 0 0 1 6 40Z" fill="#7f1d1d"/>
  <path d="M32 12v8" stroke="#fca5a5" stroke-width="2.4" stroke-linecap="round"/>
  <path d="M27.5 40c-1.4-4.4.6-6.9 3-9-1 3 .3 4 1.5 2.4 1.6-2.1 1-4.7-.3-6.6 4.4 1.6 7.3 5.6 6.1 10.4-.3 1.1-.8 2.1-1.5 2.9 2-1 3-3 2.7-5.3 2 2 2.6 5.3 1.2 7.9-1.6 3-5 4.4-8.1 3.6-3.2-.8-5.3-3.6-4.6-6.3Z" fill="url(#flameG)"/>
</svg>
