<svg viewBox="0 0 64 64" xmlns="http://www.w3.org/2000/svg" role="img" aria-label="Meteorec">
  <defs>
    <linearGradient id="logoSunG" x1="0" y1="0" x2="1" y2="1">
      <stop offset="0%" stop-color="#fde68a"/>
      <stop offset="100%" stop-color="#f59e0b"/>
    </linearGradient>
    <linearGradient id="logoMtnG" x1="0" y1="0" x2="0" y2="1">
      <stop offset="0%" stop-color="#38bdf8"/>
      <stop offset="100%" stop-color="#6366f1"/>
    </linearGradient>
  </defs>
  <circle cx="32" cy="24" r="10" fill="url(#logoSunG)"/>
  <g stroke="#fbbf24" stroke-width="2.4" stroke-linecap="round">
    <line x1="32" y1="4" x2="32" y2="9"/>
    <line x1="42" y1="6.7" x2="39.5" y2="11"/>
    <line x1="49.3" y1="14" x2="45" y2="16.5"/>
    <line x1="22" y1="6.7" x2="24.5" y2="11"/>
    <line x1="14.7" y1="14" x2="19" y2="16.5"/>
  </g>
  <path d="M4 50 L22 30 L33 42 L44 24 L60 50 Z" fill="url(#logoMtnG)"/>
  <path d="M44 24 L50 38 L38 38 Z" fill="#e0f2fe" opacity=".85"/>
  <path d="M22 30 L28 39 L16 39 Z" fill="#e0f2fe" opacity=".85"/>
  <path d="M4 54 q8 -4 14 0 t14 0 t14 0 t14 0" fill="none" stroke="#38bdf8" stroke-width="2.4" stroke-linecap="round"/>
</svg>
