<svg xmlns="http://www.w3.org/2000/svg" viewBox="0 0 1200 675" role="img" aria-labelledby="t">
<title id="t">Ilustracija: gozd v senci in osončen travnik ob dolini</title>

<defs>
  <linearGradient id="sky" x1="0" y1="0" x2="0" y2="1">
    <stop offset="0%" stop-color="#bfe3ff"/>
    <stop offset="55%" stop-color="#e3f3ff"/>
    <stop offset="100%" stop-color="#eef8ea"/>
  </linearGradient>
  <linearGradient id="hill1" x1="0" y1="0" x2="0" y2="1">
    <stop offset="0%" stop-color="#8fc98a"/>
    <stop offset="100%" stop-color="#6fae6a"/>
  </linearGradient>
  <linearGradient id="hill2" x1="0" y1="0" x2="0" y2="1">
    <stop offset="0%" stop-color="#5f9f63"/>
    <stop offset="100%" stop-color="#3f7a48"/>
  </linearGradient>
  <radialGradient id="bokeh" cx="50%" cy="50%" r="50%">
    <stop offset="0%" stop-color="#ffffff" stop-opacity=".9"/>
    <stop offset="100%" stop-color="#ffffff" stop-opacity="0"/>
  </radialGradient>
</defs>



<rect width="1200" height="675" fill="url(#sky)"/>
<path d="M0 420 Q220 340 430 400 T860 380 Q1040 350 1200 410 V675 H0 Z" fill="url(#hill1)" opacity=".55"/>
<path d="M0 470 Q260 400 520 450 T1000 430 Q1120 415 1200 450 V675 H0 Z" fill="url(#hill2)" opacity=".85"/>
<circle cx="120" cy="140" r="34" fill="url(#bokeh)"/>
<circle cx="980" cy="90" r="46" fill="url(#bokeh)"/>
<circle cx="1080" cy="220" r="24" fill="url(#bokeh)"/>
<circle cx="220" cy="230" r="18" fill="url(#bokeh)"/>


<defs>
  <linearGradient id="sunSide" x1="0" y1="0" x2="1" y2="0">
    <stop offset="0%" stop-color="#ffffff" stop-opacity="0"/>
    <stop offset="100%" stop-color="#fff6d8" stop-opacity=".55"/>
  </linearGradient>
</defs>
<rect x="600" y="0" width="600" height="675" fill="url(#sunSide)"/>
<g>
  <g transform="translate(300,420)">
    <rect x="-10" y="20" width="20" height="90" fill="#5b3a24"/>
    <ellipse cx="0" cy="-10" rx="80" ry="90" fill="#2f6b3c"/>
  </g>
  <g transform="translate(420,450)">
    <rect x="-9" y="18" width="18" height="80" fill="#5b3a24"/>
    <ellipse cx="0" cy="-8" rx="68" ry="76" fill="#3f7a48"/>
  </g>
  <g transform="translate(220,460)">
    <rect x="-8" y="16" width="16" height="70" fill="#5b3a24"/>
    <ellipse cx="0" cy="-6" rx="58" ry="66" fill="#3f7a48"/>
  </g>
</g>
<circle cx="900" cy="110" r="50" fill="#fde68a"/>
<g stroke="#f4b942" stroke-width="5" stroke-linecap="round">
  <line x1="900" y1="30" x2="900" y2="10"/>
  <line x1="960" y1="60" x2="978" y2="46"/>
  <line x1="960" y1="160" x2="978" y2="174"/>
</g>


<g stroke="#2f6b3c" stroke-width="6" stroke-linecap="round" opacity=".8">
  <path d="M60 675 C55 590 90 560 80 500"/>
  <path d="M110 675 C120 600 90 555 100 490"/>
  <path d="M1130 675 C1120 580 1160 550 1145 480"/>
  <path d="M1080 675 C1095 595 1060 560 1075 500"/>
</g>

</svg>
