<svg xmlns="http://www.w3.org/2000/svg" viewBox="0 0 1200 675" role="img" aria-labelledby="t">
<title id="t">Ilustracija: papirnata vetrnica na palici v vetru</title>

<defs>
  <linearGradient id="sky" x1="0" y1="0" x2="0" y2="1">
    <stop offset="0%" stop-color="#bfe3ff"/>
    <stop offset="55%" stop-color="#e3f3ff"/>
    <stop offset="100%" stop-color="#eef8ea"/>
  </linearGradient>
  <linearGradient id="hill1" x1="0" y1="0" x2="0" y2="1">
    <stop offset="0%" stop-color="#8fc98a"/>
    <stop offset="100%" stop-color="#6fae6a"/>
  </linearGradient>
  <linearGradient id="hill2" x1="0" y1="0" x2="0" y2="1">
    <stop offset="0%" stop-color="#5f9f63"/>
    <stop offset="100%" stop-color="#3f7a48"/>
  </linearGradient>
  <radialGradient id="bokeh" cx="50%" cy="50%" r="50%">
    <stop offset="0%" stop-color="#ffffff" stop-opacity=".9"/>
    <stop offset="100%" stop-color="#ffffff" stop-opacity="0"/>
  </radialGradient>
</defs>



<rect width="1200" height="675" fill="url(#sky)"/>
<path d="M0 420 Q220 340 430 400 T860 380 Q1040 350 1200 410 V675 H0 Z" fill="url(#hill1)" opacity=".55"/>
<path d="M0 470 Q260 400 520 450 T1000 430 Q1120 415 1200 450 V675 H0 Z" fill="url(#hill2)" opacity=".85"/>
<circle cx="120" cy="140" r="34" fill="url(#bokeh)"/>
<circle cx="980" cy="90" r="46" fill="url(#bokeh)"/>
<circle cx="1080" cy="220" r="24" fill="url(#bokeh)"/>
<circle cx="220" cy="230" r="18" fill="url(#bokeh)"/>


<g transform="translate(600,330)">
  <rect x="-6" y="40" width="12" height="260" fill="#a9744a" rx="4"/>
  <g transform="rotate(18)">
    <polygon points="0,0 90,-18 18,0 90,18" fill="#f4b942"/>
    <polygon points="0,0 -18,-90 0,-18 18,-90" fill="#4fa8e8"/>
    <polygon points="0,0 -90,18 -18,0 -90,-18" fill="#6fae6a"/>
    <polygon points="0,0 18,90 0,18 -18,90" fill="#e86e6e"/>
    <circle cx="0" cy="0" r="10" fill="#0a1628"/>
  </g>
</g>
<g fill="none" stroke="#ffffff" stroke-width="5" stroke-linecap="round" opacity=".75">
  <path d="M120 160 Q190 148 250 162 T380 156"/>
  <path d="M760 110 Q830 98 890 112 T1020 106"/>
</g>


<g stroke="#2f6b3c" stroke-width="6" stroke-linecap="round" opacity=".8">
  <path d="M60 675 C55 590 90 560 80 500"/>
  <path d="M110 675 C120 600 90 555 100 490"/>
  <path d="M1130 675 C1120 580 1160 550 1145 480"/>
  <path d="M1080 675 C1095 595 1060 560 1075 500"/>
</g>

</svg>
