<svg xmlns="http://www.w3.org/2000/svg" viewBox="0 0 512 512" width="512" height="512"><defs><clipPath id="c"><rect x="13.0" y="13.0" width="486" height="486" rx="112"/></clipPath></defs><rect x="13.0" y="13.0" width="486" height="486" rx="112" fill="#dc2626"/><g clip-path="url(#c)"><g transform="translate(22,110) scale(2.34)"><path d="M10 168 L82 22 L108 64 L134 18 L192 168 Z" fill="#fdf6e3" stroke="#111" stroke-width="7" stroke-linejoin="round"/><path d="M134 18 L152 48 L138 44 L128 55 L116 46 Z" fill="#fff" stroke="#111" stroke-width="4.5" stroke-linejoin="round"/><path d="M82 22 L96 46 L84 43 L74 52 L64 44 Z" fill="#fff" stroke="#111" stroke-width="4.5" stroke-linejoin="round"/><path d="M108 68 L78 92 L112 108 L80 134 L104 150 L92 168" fill="none" stroke="#111" stroke-width="10" stroke-linecap="round" stroke-linejoin="round"/><path d="M108 68 L78 92 L112 108 L80 134 L104 150 L92 168" fill="none" stroke="#fff" stroke-width="4" stroke-dasharray="1 11" stroke-linecap="round" stroke-linejoin="round"/></g></g><rect x="13.0" y="13.0" width="486" height="486" rx="112" fill="none" stroke="#111" stroke-width="26"/></svg>
